<?xml version="1.0" encoding="UTF-8"?>
<!DOCTYPE svg PUBLIC "-//W3C//DTD SVG 1.1//EN" "http://www.w3.org/Graphics/SVG/1.1/DTD/svg11.dtd">
<svg xmlns="http://www.w3.org/2000/svg" version="1.1" width="240px" height="240px" style="shape-rendering:geometricPrecision; text-rendering:geometricPrecision; image-rendering:optimizeQuality; fill-rule:evenodd; clip-rule:evenodd" xmlns:xlink="http://www.w3.org/1999/xlink">
<g><path fill="#d43355" d="M 148.84,25.03 c 2.99,1.3 6.06,2.46 9.2,3.47 c 2.5,1.1 4.97,2.26 7.4,3.48 c 4.67,2.63 9.19,5.47 13.57,8.53 c 1.95,2.08 4.11,3.91 6.49,5.47 c 2.71,2.64 5.38,5.34 7.99,8.08 c 2.61,3.69 5.29,7.34 8.04,10.93 c 0.91,2 2.04,3.87 3.39,5.6 c 1.03,3.11 2.33,6.11 3.91,8.99 c 0.3,0.69 0.72,2.55 -0.6,2.47 c -2.35,-4.57 -4.69,-9.14 -7.04,-13.71 c -2.2,-3.46 -4.45,-6.89 -6.75,-10.28 c -2.49,-2.56 -4.84,-5.23 -7.06,-8.01 c -2.59,-2.05 -5.1,-4.2 -7.51,-6.45 c -3.42,-2.19 -6.75,-4.5 -9.99,-6.95 c -7.38,-4.52 -15.23,-7.97 -23.53,-10.35 c -5.32,-1.08 -10.66,-2.08 -16.01,-2.97 c -4.29,0 -8.58,-0.03 -12.87,-0.07 c -3.61,0.22 -7.21,0.59 -10.8,1.12 c -3.34,0.65 -6.69,1.29 -10.03,1.93 c -3.22,1 -6.41,2.08 -9.57,3.26 c -7.9,3.48 -15.37,7.69 -22.43,12.64 c -9.08,7.61 -16.34,16.17 -22.86,26.02 c -1.35,2.35 -2.65,4.72 -3.92,7.11 c -2.29,5.58 -4.35,11.25 -6.18,17 c -5.42,19.47 -3.52,39.21 3.52,57.97 c 2.52,5.63 5.36,11.08 8.5,16.37 c -1.75,6.68 -3.54,13.35 -5.37,20.01 c -0.59,3.02 -1.23,6.03 -1.91,9.03 c -0.99,2.33 -1.52,4.78 -1.56,7.33 c -1.67,-1.62 -1.01,-4.45 -0.95,-6.53 c 2.18,-8.4 4.42,-16.8 6.72,-25.2 c 0.45,-2.14 0.39,-4.27 -0.16,-6.36 c -1.32,-1.87 -3.94,-9.12 -5.61,-10 c -0.02,-0.77 -0.09,-1.55 -0.23,-2.31 c -1.27,-3.08 -2.43,-6.2 -3.47,-9.36 c -0.58,-2.64 -1.33,-5.25 -2.23,-7.82 c -0.11,-0.94 -0.2,-1.88 -0.25,-2.82 c -0.96,-2.22 -1.31,-4.54 -1.03,-6.96 c -1.51,-3.88 -0.78,-11.01 -0.97,-15.28 c 0.73,-3.25 1.15,-6.54 1.27,-9.89 c 0.48,-2.73 1.13,-5.41 1.95,-8.05 c 1.11,-3.28 2.15,-6.58 3.11,-9.9 c 1.11,-2.8 2.34,-5.55 3.68,-8.26 c 1.78,-3.52 3.71,-6.95 5.8,-10.29 c 2.03,-2.94 4.19,-5.79 6.47,-8.57 c 1.09,-1.24 2.22,-2.45 3.38,-3.62 c 0.34,-0.66 0.71,-1.3 1.12,-1.92 c 3.22,-2.78 6.42,-5.59 9.6,-8.42 c 4.56,-3.13 9.21,-6.13 13.93,-9.01 c 3.58,-1.83 7.24,-3.49 10.98,-4.99 c 3.77,-1.46 7.6,-2.7 11.49,-3.71 c 4.67,-0.81 9.37,-1.46 14.11,-1.96 c 8.02,-0.31 16.01,-0.45 23.94,0.96 c 3.79,0.67 7.57,1.42 11.33,2.25 Z"/></g>
<g><path fill="#bd2971" d="M 214.84,156.91 c 0.19,0.73 0.42,1.44 0.67,2.14 c -25.62,55.44 -91.45,76.58 -144.93,46.78 c -0.98,-0.46 -2.01,-0.68 -3.08,-0.68 c -11.54,3 -23.04,6.11 -34.52,9.34 c -6.81,2.14 -12.08,-2.42 -9.71,-9.5 c 0.57,0.05 1.14,0.12 1.7,0.21 c 0.1,1.61 0.28,3.21 0.55,4.79 c 2.11,2.54 3.22,3.5 6.77,2.71 c 6.22,-1.89 33.63,-10.72 38.36,-8.92 c 22.26,12.55 50.59,17.27 75.37,10.74 c 17.16,-4.07 37.66,-15.64 49,-28.97 c 9.1,-8.28 13.47,-18.39 19.82,-28.64 Z"/></g>
<g><path fill="#c53379" d="M 77.59,22.6 c 0.21,0.48 0.41,0.96 0.62,1.44 c -0.45,0.48 -0.97,0.89 -1.54,1.22 c -22.73,10.96 -38.82,28.91 -49.13,51.75 c -0.51,1.97 -1.25,3.85 -2.23,5.63 c -0.64,4.58 -4.77,16.59 -4.09,20.33 c -3.15,21.39 1.24,43.55 12,62.29 c 3.23,6.28 -6.19,28.02 -6.52,36.05 c -0.32,1.43 -0.89,2.73 -1.73,3.89 c -0.56,-0.09 -1.13,-0.16 -1.7,-0.21 c 2.36,-8.79 4.64,-17.61 6.84,-26.44 c 0.55,-3.55 2.85,-8.84 1.11,-12.24 c -14.29,-25.27 -16.09,-52.81 -8.76,-80.62 c 9.17,-28.2 28.25,-50.42 55.13,-63.09 Z"/></g>
<g><path fill="#eb0666" stroke="#eb0666" stroke-width="0.5" d="M 96.77,18.03 c 0.53,1.8 1.75,2.76 3.67,2.86 c 6.97,0 13.91,-0.08 20.83,-0.22 c 2.45,-0.94 4.91,-0.95 7.39,-0.03 c 5.34,-0.12 10.37,0.98 15.61,1.5 c 1.17,1.02 2.52,1.7 4.04,2.04 c 0.3,0.21 0.48,0.5 0.53,0.85 c -3.76,-0.83 -7.54,-1.58 -11.33,-2.25 c -7.93,-1.41 -15.92,-1.27 -23.94,-0.96 c -4.74,0.5 -9.44,1.15 -14.11,1.96 c -3.89,1.01 -7.72,2.25 -11.49,3.71 c -3.74,1.5 -7.4,3.16 -10.98,4.99 c -4.72,2.88 -9.37,5.88 -13.93,9.01 c -3.18,2.83 -6.38,5.64 -9.6,8.42 c -0.41,0.62 -0.78,1.26 -1.12,1.92 c -1.16,1.17 -2.29,2.38 -3.38,3.62 c -2.28,2.78 -4.44,5.63 -6.47,8.57 c -2.09,3.34 -4.02,6.77 -5.8,10.29 c -1.34,2.71 -2.57,5.46 -3.68,8.26 c -0.96,3.32 -2,6.62 -3.11,9.9 c -0.82,2.64 -1.47,5.32 -1.95,8.05 c -0.12,3.35 -0.54,6.64 -1.27,9.89 c 0.19,4.27 -0.54,11.4 0.97,15.28 c -0.28,2.42 0.07,4.74 1.03,6.96 c 0.05,0.94 0.14,1.88 0.25,2.82 c 0.9,2.57 1.65,5.18 2.23,7.82 c 1.04,3.16 2.2,6.28 3.47,9.36 c 0.14,0.76 0.21,1.54 0.23,2.31 c -3.91,-3.18 -5.03,-15.58 -8.75,-20.65 c -0.14,-1.93 -0.51,-3.06 -1.21,-4.77 c 0.01,-8.62 -0.03,-17.22 -0.11,-25.83 c -0.98,-1.14 -2.29,-1.95 -3.57,-0.74 c -0.68,-3.74 3.45,-15.75 4.09,-20.33 c 0.98,-1.78 1.72,-3.66 2.23,-5.63 c 10.31,-22.84 26.4,-40.79 49.13,-51.75 c 0.57,-0.33 1.09,-0.74 1.54,-1.22 c 5.46,-2.03 10.97,-3.95 16.52,-5.76 c 0.67,-0.12 1.35,-0.2 2.04,-0.25 Z"/></g>
<g><path fill="#c02b70" d="M 210.52,62.85 c -0.24,0.75 -0.39,1.52 -0.46,2.31 c -0.57,-0.32 -1.07,-0.71 -1.52,-1.18 c -24.53,-38.56 -64.84,-55.78 -110.04,-46.72 c -0.67,0.06 -1.25,0.32 -1.73,0.77 c -0.69,0.05 -1.37,0.13 -2.04,0.25 c -5.55,1.81 -11.06,3.73 -16.52,5.76 c -0.21,-0.48 -0.41,-0.96 -0.62,-1.44 c 10.48,-4.84 21.44,-8.01 32.9,-9.48 c 6.34,-0.44 12.68,-0.53 19.02,-0.27 c 34.95,3.81 61.95,20.48 81.01,50 Z"/></g>
<g><path fill="#c63b82" d="M 210.52,62.85 c 17.11,28.07 19.65,66.64 4.99,96.2 c -0.25,-0.7 -0.48,-1.41 -0.67,-2.14 c 1.61,-4.63 3.15,-9.29 4.63,-13.97 c 1.47,-5.76 2.55,-11.59 3.25,-17.49 c 0.34,-5.98 0.35,-11.95 0.04,-17.93 c -0.5,-2.98 -0.79,-5.99 -0.89,-9.03 c -1.64,-7.29 -3.76,-14.45 -6.35,-21.46 c -1.59,-3.35 -3.25,-6.66 -4.98,-9.93 c -0.28,-0.62 -0.45,-1.26 -0.48,-1.94 c 0.07,-0.79 0.22,-1.56 0.46,-2.31 Z"/></g>
<g><path fill="#ef066d" stroke="#ef066d" stroke-width="0.5" d="M 210.06,65.16 c 0.03,0.68 0.2,1.32 0.48,1.94 c 1.73,3.27 3.39,6.58 4.98,9.93 c 2.59,7.01 4.71,14.17 6.35,21.46 c 0.1,3.04 0.39,6.05 0.89,9.03 c 0.31,5.98 0.3,11.95 -0.04,17.93 c -0.7,5.9 -1.78,11.73 -3.25,17.49 c -1.48,4.68 -3.02,9.34 -4.63,13.97 c -6.35,10.25 -10.72,20.36 -19.82,28.64 c -11.34,13.33 -31.84,24.9 -49,28.97 c -24.78,6.53 -53.11,1.81 -75.37,-10.74 c -4.73,-1.8 -32.14,7.03 -38.36,8.92 c -3.55,0.79 -4.66,-0.17 -6.77,-2.71 c -0.27,-1.58 -0.45,-3.18 -0.55,-4.79 c 0.84,-1.16 1.41,-2.46 1.73,-3.89 c 0.33,-8.03 9.75,-29.77 6.52,-36.05 c -10.76,-18.74 -15.15,-40.9 -12,-62.29 c 1.28,-1.21 2.59,-0.4 3.57,0.74 c 0.08,8.61 0.12,17.21 0.11,25.83 c 0.7,1.71 1.07,2.84 1.21,4.77 c 3.72,5.07 4.84,17.47 8.75,20.65 c 1.67,0.88 4.29,8.13 5.61,10 c 0.55,2.09 0.61,4.22 0.16,6.36 c -2.3,8.4 -4.54,16.8 -6.72,25.2 c -0.06,2.08 -0.72,4.91 0.95,6.53 c 0.96,1.18 2.17,1.51 3.64,1.02 c 10.06,-2.55 20.14,-5.13 30.21,-7.74 c 0.51,-0.09 1.02,-0.1 1.54,-0.03 c 5.16,2.44 10.3,4.95 15.4,7.52 c 3.97,1.44 7.98,2.75 12.03,3.92 c 4.25,0.93 8.51,1.78 12.78,2.57 c 2.02,-0.05 4.02,0.16 5.98,0.63 c 3.78,0 9.83,0.63 13.29,-0.67 c 1.96,0.08 3.9,-0.03 5.83,-0.32 c 5.4,-1.02 10.74,-2.29 16.02,-3.82 c 2.48,-0.76 4.87,-1.71 7.19,-2.84 c 4.42,-2.23 8.84,-4.48 13.24,-6.76 c 3.34,-2.34 6.67,-4.68 9.98,-7.02 c 3.78,-3.55 7.44,-7.2 11,-10.95 c 2.62,-3.09 5.11,-6.28 7.46,-9.57 c 1.64,-3.3 3.47,-6.48 5.5,-9.56 c 1.22,-2.46 2.42,-4.93 3.59,-7.41 c 1.85,-4.85 3.53,-9.77 5.05,-14.74 c 0.81,-3.31 1.49,-6.63 2.06,-9.96 c 0.29,-6.6 0.3,-13.19 0.03,-19.79 c -0.14,-1.52 -0.57,-2.95 -1.28,-4.27 c -0.61,0.8 -0.96,1.72 -1.03,2.77 c -1.36,-8.55 -2.84,-15.95 -6.14,-23.98 c 1.32,0.08 0.9,-1.78 0.6,-2.47 c -1.58,-2.88 -2.88,-5.88 -3.91,-8.99 c -1.35,-1.73 -2.48,-3.6 -3.39,-5.6 c -2.75,-3.59 -5.43,-7.24 -8.04,-10.93 c -2.61,-2.74 -5.28,-5.44 -7.99,-8.08 c -2.38,-1.56 -4.54,-3.39 -6.49,-5.47 c -4.38,-3.06 -8.9,-5.9 -13.57,-8.53 c -2.43,-1.22 -4.9,-2.38 -7.4,-3.48 c -3.14,-1.01 -6.21,-2.17 -9.2,-3.47 c -0.05,-0.35 -0.23,-0.64 -0.53,-0.85 c -1.52,-0.34 -2.87,-1.02 -4.04,-2.04 c -5.24,-0.52 -10.27,-1.62 -15.61,-1.5 c -2.48,-0.92 -4.94,-0.91 -7.39,0.03 c -6.92,0.14 -13.86,0.22 -20.83,0.22 c -1.92,-0.1 -3.14,-1.06 -3.67,-2.86 c 0.48,-0.45 1.06,-0.71 1.73,-0.77 c 45.2,-9.06 85.51,8.16 110.04,46.72 c 0.45,0.47 0.95,0.86 1.52,1.18 Z"/></g>
<g><path fill="#d42652" d="M 34.86,203.05 c 1.16,-0.21 2.34,-0.34 3.52,-0.39 c 9.81,-2.58 19.55,-5.38 29.24,-8.38 c 0.95,-0.26 1.92,-0.35 2.91,-0.28 c 2.89,1.37 5.69,2.91 8.4,4.64 c 6.92,3.51 14.15,6.17 21.7,7.96 c 3.04,0.27 6.32,1.81 9.34,1.52 c 1.1,0.53 2.29,0.8 3.56,0.8 c 2.51,0.21 18.74,0.74 19.6,-0.83 c 6.99,0.04 16.22,-3.15 22.81,-5.63 c 2.72,-1.35 5.49,-2.59 8.3,-3.73 c 3.6,-2.04 7.16,-4.17 10.65,-6.38 c 4.19,-3.11 8.21,-6.43 12.05,-9.94 c 2.42,-2.92 4.94,-5.75 7.58,-8.49 c 1.81,-2.5 3.58,-5.02 5.31,-7.57 c 1.04,-2.22 2.27,-4.33 3.67,-6.34 c 2.99,-5.97 5.53,-12.12 7.61,-18.46 c 2.02,-6.99 2.79,-14.08 3.54,-21.27 c 0.15,-4.76 0.06,-9.51 -0.28,-14.25 c 0.07,-1.05 0.42,-1.97 1.03,-2.77 c 0.71,1.32 1.14,2.75 1.28,4.27 c 0.27,6.6 0.26,13.19 -0.03,19.79 c -0.57,3.33 -1.25,6.65 -2.06,9.96 c -1.52,4.97 -3.2,9.89 -5.05,14.74 c -1.17,2.48 -2.37,4.95 -3.59,7.41 c -2.03,3.08 -3.86,6.26 -5.5,9.56 c -2.35,3.29 -4.84,6.48 -7.46,9.57 c -3.56,3.75 -7.22,7.4 -11,10.95 c -3.31,2.34 -6.64,4.68 -9.98,7.02 c -4.4,2.28 -8.82,4.53 -13.24,6.76 c -2.32,1.13 -4.71,2.08 -7.19,2.84 c -5.28,1.53 -10.62,2.8 -16.02,3.82 c -1.93,0.29 -3.87,0.4 -5.83,0.32 c -3.46,1.3 -9.51,0.67 -13.29,0.67 c -1.96,-0.47 -3.96,-0.68 -5.98,-0.63 c -4.27,-0.79 -8.53,-1.64 -12.78,-2.57 c -4.05,-1.17 -8.06,-2.48 -12.03,-3.92 c -5.1,-2.57 -10.24,-5.08 -15.4,-7.52 c -0.52,-0.07 -1.03,-0.06 -1.54,0.03 c -10.07,2.61 -20.15,5.19 -30.21,7.74 c -1.47,0.49 -2.68,0.16 -3.64,-1.02 Z"/></g>
<g><path fill="#feb87c" stroke="#feb87c" stroke-width="0.5" d="M 208.23,82.05 c 3.3,8.03 4.78,15.43 6.14,23.98 c 0.34,4.74 0.43,9.49 0.28,14.25 c -0.75,7.19 -1.52,14.28 -3.54,21.27 c -2.08,6.34 -4.62,12.49 -7.61,18.46 c -1.4,2.01 -2.63,4.12 -3.67,6.34 c -1.73,2.55 -3.5,5.07 -5.31,7.57 c -2.64,2.74 -5.16,5.57 -7.58,8.49 c -3.84,3.51 -7.86,6.83 -12.05,9.94 c -3.49,2.21 -7.05,4.34 -10.65,6.38 c -2.81,1.14 -5.58,2.38 -8.3,3.73 c -6.59,2.48 -15.82,5.67 -22.81,5.63 c -6.86,0 -13.73,-0.14 -20.6,-0.4 c -0.87,0.02 -1.73,0.17 -2.56,0.43 c -3.02,0.29 -6.3,-1.25 -9.34,-1.52 c -7.55,-1.79 -14.78,-4.45 -21.7,-7.96 c -2.71,-1.73 -5.51,-3.27 -8.4,-4.64 c -0.99,-0.07 -1.96,0.02 -2.91,0.28 c -9.69,3 -19.43,5.8 -29.24,8.38 c -1.18,0.05 -2.36,0.18 -3.52,0.39 c 0.04,-2.55 0.57,-5 1.56,-7.33 c 0.68,-3 1.32,-6.01 1.91,-9.03 c 1.83,-6.66 3.62,-13.33 5.37,-20.01 c -3.14,-5.29 -5.98,-10.74 -8.5,-16.37 c -7.04,-18.76 -8.94,-38.5 -3.52,-57.97 c 1.83,-5.75 3.89,-11.42 6.18,-17 c 1.27,-2.39 2.57,-4.76 3.92,-7.11 c 6.52,-9.85 13.78,-18.41 22.86,-26.02 c 7.06,-4.95 14.53,-9.16 22.43,-12.64 c 3.16,-1.18 6.35,-2.26 9.57,-3.26 c 3.34,-0.64 6.69,-1.28 10.03,-1.93 c 3.59,-0.53 7.19,-0.9 10.8,-1.12 c 4.29,0.04 8.58,0.07 12.87,0.07 c 5.35,0.89 10.69,1.89 16.01,2.97 c 8.3,2.38 16.15,5.83 23.53,10.35 c 3.24,2.45 6.57,4.76 9.99,6.95 c 2.41,2.25 4.92,4.4 7.51,6.45 c 2.22,2.78 4.57,5.45 7.06,8.01 c 2.3,3.39 4.55,6.82 6.75,10.28 c 2.35,4.57 4.69,9.14 7.04,13.71 Z M 95.03,195.78 c 0.55,0.47 1.16,0.82 1.85,1.05 c 2.28,0.85 4.59,1.57 6.95,2.16 c -0.06,0.69 0.19,1.22 0.75,1.59 c 1.78,-0.01 3.47,0.36 5.08,1.12 c 3.33,-0.02 6.6,0.33 9.83,1.06 c 10.53,-0.17 19.48,-0.81 29.46,-4.3 c 3.51,-1.41 6.97,-2.97 10.37,-4.66 c 1.74,-0.89 1.71,-1.53 -0.11,-1.92 c 0.14,-0.42 0.42,-0.69 0.84,-0.83 c 1.17,-0.04 2.13,-0.5 2.89,-1.38 c 1.9,-0.01 13.46,-8.75 15.54,-10.7 c 21.93,-20.99 30.91,-44.88 27.17,-75.25 c -8.8,-61.21 -81.5,-93.84 -132.46,-57.14 c -25.8,19.08 -37.97,43.53 -36.39,75.98 c 1.06,14.08 5.27,25.68 12.36,37.78 c 2.05,1.91 2.91,4.25 2.58,7.01 c -2.18,7.32 -4.08,14.71 -5.7,22.17 c -1.15,3.65 2.99,1.54 4.57,1.45 c 6.88,-2.04 13.79,-3.93 20.73,-5.67 c 6.72,3.14 16.51,9.61 23.69,10.48 Z"/></g>
<g><path fill="#ebbd91" d="M 159.21,191.88 c 1.82,0.39 1.85,1.03 0.11,1.92 c -3.4,1.69 -6.86,3.25 -10.37,4.66 c -9.98,3.49 -18.93,4.13 -29.46,4.3 c -3.23,-0.73 -6.5,-1.08 -9.83,-1.06 c -1.61,-0.76 -3.3,-1.13 -5.08,-1.12 c -0.56,-0.37 -0.81,-0.9 -0.75,-1.59 c 19.1,4.09 37.91,1.47 55.38,-7.11 Z"/></g>
<g><path fill="#c1227f" stroke="#c1227f" stroke-width="0.5" d="M 95.88,92.62 c 6,1.67 11.82,3.85 17.46,6.52 c 14.17,6.26 27.75,13.61 40.74,22.04 c 0.01,1.29 -0.44,2.39 -1.36,3.28 c -6.38,-3.87 -12.85,-7.59 -19.41,-11.17 c -10.32,-5.71 -20.95,-10.79 -31.87,-15.23 c -3.09,-1.15 -6.26,-1.96 -9.51,-2.41 c 1.28,-1.06 2.6,-2.07 3.95,-3.03 Z"/></g>
<g><path fill="#290c4b" stroke="#290c4b" stroke-width="0.5" d="M 124.91,69.71 c 1.69,0.41 3.38,0.43 5.08,0.06 c 3.41,0.93 2.85,-3.09 3.31,-5.13 c 1.83,-5 6.88,-7.78 12.06,-7.32 c 8.09,1.56 13.22,9.04 10.47,17 c -1.54,2.08 -2.88,4.29 -4.03,6.63 c -1.15,0.95 0.36,3.18 0.2,4.48 c 1.45,3.33 2.69,6.74 3.72,10.23 c 0.35,2.97 0.76,5.94 1.23,8.89 c -0.17,2.65 -0.23,5.31 -0.2,7.97 c -0.79,2.28 -0.21,7.29 -4.06,6.22 c -4.53,-2.77 -9,-5.64 -13.4,-8.61 c -7.76,-3.85 -15.5,-7.71 -23.23,-11.6 c -2.68,-1.08 -5.38,-2.08 -8.1,-3.02 c -1.51,-0.89 -3.07,-1.66 -4.69,-2.34 c -2.29,-0.66 -4.54,-1.37 -6.76,-2.11 c -0.72,-1.32 -0.57,-2.53 0.46,-3.62 c 2.5,-2.48 5,-4.97 7.5,-7.45 c 0.76,-0.65 1.61,-1.16 2.54,-1.53 c 1.57,-1.8 3.59,-2.99 4.73,-5.15 c -1.21,-4.87 -2.1,-9.81 -2.67,-14.8 c -0.03,-1.61 0.04,-3.21 0.22,-4.81 c 0.35,-2.38 1.59,-3.12 3.72,-2.22 c 3.5,3.32 5.69,7.8 8.21,11.88 c 0.48,1.74 1.11,3.42 1.88,5.05 c 0.38,0.75 0.98,1.18 1.81,1.3 Z M 157.9,188.73 c -1.04,0.95 -2.24,1.63 -3.6,2.02 c -1.99,0.15 -3.97,0.39 -5.91,0.72 c 0.78,0.27 1.53,0.6 2.24,1 c -1.58,0.55 -3.06,1.34 -4.41,2.37 c -14.71,4.79 -30.89,5.16 -45.55,-0.02 c -0.87,-0.33 -1.45,-0.94 -1.72,-1.84 c 0.25,-2.95 0.93,-5.8 2.05,-8.55 c -0.26,-2.32 -0.59,-4.63 -1.01,-6.93 c -0.13,-3.51 2.29,-6.58 1.9,-10.03 c -2.45,-5.31 1.37,-11.96 3.12,-17 c 0.66,-3.72 -2.25,-5.69 -5.48,-6.39 c -3.36,-0.12 -6.69,-0.5 -9.99,-1.14 c -2.37,0.37 -4.74,0.77 -7.11,1.2 c -2.08,0.02 -5.05,0.27 -6.44,-1.64 c -1.58,-3.01 -3.31,-4.09 -6,-5.95 c -0.58,-0.58 -0.95,-1.27 -1.09,-2.07 c 0.71,-3.57 1.2,-7.17 1.45,-10.82 c 0.23,-0.94 0.61,-1.8 1.17,-2.59 c 1.64,-1.41 3.38,-2.71 5.19,-3.92 c 4.3,-1.86 8.4,-4.08 12.28,-6.68 c 0.81,-0.61 1.04,-1.39 0.69,-2.34 c 0.18,-0.86 -0.02,-1.59 -0.62,-2.19 c 0.33,-1.61 -1.43,-2.22 -1.83,-3.63 c -0.66,-2.24 0.1,-3.72 2.27,-4.41 c 1.35,-0.04 2.67,-0.22 3.97,-0.53 c 3.58,0.82 7.1,1.87 10.55,3.14 c 6.17,3.36 12.93,5.14 18.66,9.31 c 1.54,0.23 2.86,0.9 3.95,2.02 c 4.22,2.31 9.24,4.18 13.04,7.05 c 3.34,1.57 6.58,3.32 9.73,5.25 c 4.07,2.12 2.38,5.69 1.96,9.23 c 1.12,3.66 1.9,7.4 2.34,11.21 c 0.25,2.31 -1.3,4.75 -1.74,7 c -0.62,3.39 1.22,5.49 2.52,8.37 c 0.31,1.91 0.79,3.78 1.44,5.6 c 0.45,3.13 -0.04,6.1 -1.47,8.91 c 1.14,3.75 2.24,7.51 3.29,11.28 c 0.19,0.99 0.24,1.99 0.16,2.99 Z"/></g>
<g><path fill="#fa0271" stroke="#fa0271" stroke-width="0.5" d="M 163.05,186.45 c -0.6,-0.42 -1.12,-0.92 -1.55,-1.52 c -1.06,-3.19 -2.14,-6.37 -3.22,-9.56 c 0.58,-2.28 1.1,-4.57 1.55,-6.89 c -0.46,-1.92 -0.83,-3.85 -1.11,-5.8 c -0.95,-3.41 -2.1,-6.72 -3.44,-9.96 c 0.55,-1.43 1.03,-2.89 1.45,-4.37 c 0.75,-4.48 0.3,-8.85 -1.35,-13.09 c -0.53,-2.3 -0.32,-4.53 0.64,-6.69 c 0.4,-3.79 -0.71,-4.94 2.44,-7.6 c 0.3,-0.47 0.5,-0.98 0.59,-1.53 c 0.63,-2.95 1.03,-5.94 1.2,-8.96 c -0.03,-2.68 -0.07,-5.36 -0.12,-8.04 c -0.53,-2.28 -0.89,-4.59 -1.08,-6.93 c -1.07,-4.07 -2.37,-8.05 -3.9,-11.96 c 0.03,-0.8 0.25,-1.56 0.65,-2.26 c 4.33,-5.62 5.7,-11.66 2.7,-18.35 c -1.58,-3.79 -5.09,-5.48 -8.19,-7.78 c -6.08,-2.82 -12.78,-1.54 -17.32,3.3 c -0.69,1.27 -1.51,2.46 -2.48,3.55 c -1.12,2.58 -1.69,7.59 -5.02,2.95 c -1.34,-2.66 -2.67,-5.33 -4,-8.01 c -1.65,-2.31 -3.3,-4.62 -4.95,-6.92 c -2.53,-1.71 -4.25,-3.76 -7.58,-2.51 c -4.54,3.48 -2.83,10.09 -2.85,15.02 c 0.23,4.02 2.69,6.54 1.69,10.82 c -0.34,0.62 -0.8,1.13 -1.37,1.54 c -1.81,1.18 -3.61,2.37 -5.4,3.58 c -2.03,2.01 -4.05,4.03 -6.07,6.06 c -0.9,1.42 -1.83,2.8 -2.81,4.15 c -0.13,1.47 -0.35,2.92 -0.66,4.35 c -3.51,2.17 -7.97,3.33 -7.69,8.48 c 0.35,1.86 1.01,3.61 1.98,5.26 c 0.22,0.79 0.07,1.5 -0.46,2.11 c -4.72,2.63 -9.49,5.17 -14.32,7.61 c -1.16,1.19 -2.33,2.37 -3.51,3.54 c -0.99,2.67 -1.5,4.44 -0.85,7.25 c -0.61,2.05 -1.17,4.11 -1.67,6.19 c -0.07,0.61 -0.02,1.21 0.15,1.81 c 1,1.36 1.94,2.76 2.83,4.2 c 1.11,0.93 2.27,1.79 3.49,2.58 c 1.68,4.22 6.02,5.28 10.05,6.05 c 2.99,-0.65 5.98,-1.27 8.98,-1.84 c 2.49,0.63 5.02,1.03 7.59,1.19 c 2.32,1.01 3.44,1.86 2.49,4.58 c -1.46,3.05 -2.6,6.21 -3.43,9.49 c 0.41,2.64 0.68,5.3 0.83,7.99 c -0.03,0.61 -0.12,1.2 -0.28,1.79 c -1.16,1.91 -1.78,3.97 -1.86,6.19 c 0.33,2.67 0.66,5.32 0.98,7.97 c -0.79,2.5 -1.47,5.04 -2.03,7.6 c -4.19,1.31 -15.63,-6.71 -19.73,-8.57 c -6.19,-2.57 -15.2,2.52 -21.71,3.19 c -0.94,0.04 -2.45,0.55 -3.12,-0.4 c -0.48,-5.27 2.65,-14.26 3.69,-19.74 c 0.66,-6.27 -7.33,-15.31 -9.45,-21.52 c -11.22,-31.26 -5.09,-65.74 19.58,-88.53 c 4.54,-5.76 11.72,-10.26 17.98,-14.02 c 25.86,-12.53 48.55,-13.73 74.94,-1.93 c 4.88,3.49 11.23,5.21 15.14,9.93 c 28.52,21.01 38.95,59.1 27.35,92.51 c -2.13,4.24 -4.12,8.56 -5.96,12.95 c -9,13.87 -15.51,21.45 -30.42,29.5 Z"/></g>
<g><path fill="#fd8387" d="M 109.97,208.12 c 0.83,-0.26 1.69,-0.41 2.56,-0.43 c 6.87,0.26 13.74,0.4 20.6,0.4 c -0.86,1.57 -17.09,1.04 -19.6,0.83 c -1.27,0 -2.46,-0.27 -3.56,-0.8 Z"/></g>
<g><path fill="#c31671" d="M 163.05,186.45 c -1.13,1.07 -1.16,2.14 -0.11,3.22 c -0.76,0.88 -1.72,1.34 -2.89,1.38 c -0.05,-0.39 -0.09,-0.77 -0.14,-1.15 c 0.21,-1.06 0.17,-2.11 -0.11,-3.15 c -1.27,-4.1 -2.56,-8.2 -3.88,-12.29 c 0.82,-1.58 1.5,-3.24 2.06,-4.96 c -0.06,-2.66 -0.43,-5.29 -1.11,-7.88 c -1.19,-3.12 -2.42,-6.22 -3.72,-9.29 c 0.59,-1.29 1.23,-2.56 1.95,-3.83 c 1.91,-5.04 -0.84,-9.22 -1.92,-14.02 c -0.81,-3.43 2.84,-7.29 -0.46,-10.02 c 0.92,-0.89 1.37,-1.99 1.36,-3.28 c 1.26,0.81 2.17,0.54 2.74,-0.8 c 1.06,-4.57 1.69,-9.19 1.91,-13.87 c -0.39,-3 -0.7,-6.02 -0.92,-9.04 c -0.38,-1.6 -0.75,-3.21 -1.13,-4.81 c -1.45,-3.98 -3.08,-7.88 -4.88,-11.71 c 0.8,0.01 1.56,-0.14 2.28,-0.44 c 1.33,-1.48 2.39,-3.14 3.17,-4.98 c 0.47,-2.04 0.92,-4.07 1.34,-6.1 c -0.24,-0.65 -0.49,-1.29 -0.76,-1.94 c 0.33,-1.45 -0.07,-2.65 -1.2,-3.6 c -0.36,-2.76 -1.86,-2.76 -3.36,-4.67 c -1.24,-0.78 -2.52,-1.51 -3.83,-2.19 c -3.31,-0.58 -5.46,-2.39 -8.88,-0.37 c -0.51,-0.18 -1.01,-0.2 -1.51,-0.06 c -0.93,0.78 -1.96,1.39 -3.1,1.81 c -0.8,0.89 -1.63,1.75 -2.49,2.58 c -1.23,2.33 -2.06,4.8 -2.47,7.41 c -0.26,0.51 -0.59,0.97 -1,1.37 c -1.7,0.37 -3.39,0.35 -5.08,-0.06 c -0.6,-1.78 -1.18,-3.57 -1.73,-5.37 c -2.15,-4.98 -4.96,-9.54 -8.44,-13.67 c -1.97,-1.64 -4.23,-3.96 -6.2,-0.68 c -1.71,6.05 -1.02,14.67 1.5,20.5 c 0.29,0.98 0.34,1.98 0.13,2.99 c -3.1,2.59 -6.23,5.15 -9.4,7.68 c -1.98,2.39 -4.05,4.71 -6.21,6.95 c -1.7,2.61 -2.02,3.67 1.32,4.51 c -1.35,0.96 -2.67,1.97 -3.95,3.03 c -7,-0.55 -9.57,8.03 -2.87,10.29 c 0.6,0.6 0.8,1.33 0.62,2.19 c -1.59,-0.18 -3.25,2.6 -4.91,3.12 c -3.72,1.93 -7.41,3.89 -11.09,5.91 c -1.88,1.51 -4.62,3.38 -5.27,5.83 c -0.17,1.46 -0.08,2.91 0.25,4.34 c -0.62,1.72 -1.19,3.45 -1.7,5.21 c -1.36,3.5 3.11,6.14 5.67,7.32 c 0.52,1.4 1.13,2.77 1.83,4.11 c 2.05,1.64 4.39,2.45 7.03,2.44 c 2.7,-0.46 5.39,-1.02 8.04,-1.69 c 3.36,0.21 6.68,0.67 9.96,1.37 c 3.38,0.74 5.13,1.73 3.59,5.4 c -2.38,5.73 -6.16,10.83 -2.48,17.01 c -0.89,1.97 -1.76,3.95 -2.6,5.94 c -0.98,4.01 0.06,5.64 1.63,9.03 c -1.07,3.52 -2.11,7.05 -3.1,10.58 c -0.26,0.48 -0.65,0.78 -1.18,0.9 c -0.27,-0.6 -0.47,-1.22 -0.59,-1.87 c 0.56,-2.56 1.24,-5.1 2.03,-7.6 c -0.32,-2.65 -0.65,-5.3 -0.98,-7.97 c 0.08,-2.22 0.7,-4.28 1.86,-6.19 c 0.16,-0.59 0.25,-1.18 0.28,-1.79 c -0.15,-2.69 -0.42,-5.35 -0.83,-7.99 c 0.83,-3.28 1.97,-6.44 3.43,-9.49 c 0.95,-2.72 -0.17,-3.57 -2.49,-4.58 c -2.57,-0.16 -5.1,-0.56 -7.59,-1.19 c -3,0.57 -5.99,1.19 -8.98,1.84 c -4.03,-0.77 -8.37,-1.83 -10.05,-6.05 c -1.22,-0.79 -2.38,-1.65 -3.49,-2.58 c -0.89,-1.44 -1.83,-2.84 -2.83,-4.2 c -0.17,-0.6 -0.22,-1.2 -0.15,-1.81 c 0.5,-2.08 1.06,-4.14 1.67,-6.19 c -0.65,-2.81 -0.14,-4.58 0.85,-7.25 c 1.18,-1.17 2.35,-2.35 3.51,-3.54 c 4.83,-2.44 9.6,-4.98 14.32,-7.61 c 0.53,-0.61 0.68,-1.32 0.46,-2.11 c -0.97,-1.65 -1.63,-3.4 -1.98,-5.26 c -0.28,-5.15 4.18,-6.31 7.69,-8.48 c 0.31,-1.43 0.53,-2.88 0.66,-4.35 c 0.98,-1.35 1.91,-2.73 2.81,-4.15 c 2.02,-2.03 4.04,-4.05 6.07,-6.06 c 1.79,-1.21 3.59,-2.4 5.4,-3.58 c 0.57,-0.41 1.03,-0.92 1.37,-1.54 c 1,-4.28 -1.46,-6.8 -1.69,-10.82 c 0.02,-4.93 -1.69,-11.54 2.85,-15.02 c 3.33,-1.25 5.05,0.8 7.58,2.51 c 1.65,2.3 3.3,4.61 4.95,6.92 c 1.33,2.68 2.66,5.35 4,8.01 c 3.33,4.64 3.9,-0.37 5.02,-2.95 c 0.97,-1.09 1.79,-2.28 2.48,-3.55 c 4.54,-4.84 11.24,-6.12 17.32,-3.3 c 3.1,2.3 6.61,3.99 8.19,7.78 c 3,6.69 1.63,12.73 -2.7,18.35 c -0.4,0.7 -0.62,1.46 -0.65,2.26 c 1.53,3.91 2.83,7.89 3.9,11.96 c 0.19,2.34 0.55,4.65 1.08,6.93 c 0.05,2.68 0.09,5.36 0.12,8.04 c -0.17,3.02 -0.57,6.01 -1.2,8.96 c -0.09,0.55 -0.29,1.06 -0.59,1.53 c -3.15,2.66 -2.04,3.81 -2.44,7.6 c -0.96,2.16 -1.17,4.39 -0.64,6.69 c 1.65,4.24 2.1,8.61 1.35,13.09 c -0.42,1.48 -0.9,2.94 -1.45,4.37 c 1.34,3.24 2.49,6.55 3.44,9.96 c 0.28,1.95 0.65,3.88 1.11,5.8 c -0.45,2.32 -0.97,4.61 -1.55,6.89 c 1.08,3.19 2.16,6.37 3.22,9.56 c 0.43,0.6 0.95,1.1 1.55,1.52 Z"/></g>
<g><path fill="#d1214f" d="M 162.94,189.67 c -1.05,-1.08 -1.02,-2.15 0.11,-3.22 c 14.91,-8.05 21.42,-15.63 30.42,-29.5 c 1.84,-4.39 3.83,-8.71 5.96,-12.95 c 11.6,-33.41 1.17,-71.5 -27.35,-92.51 c -3.91,-4.72 -10.26,-6.44 -15.14,-9.93 c -26.39,-11.8 -49.08,-10.6 -74.94,1.93 c -6.26,3.76 -13.44,8.26 -17.98,14.02 c -24.67,22.79 -30.8,57.27 -19.58,88.53 c 2.12,6.21 10.11,15.25 9.45,21.52 c -1.04,5.48 -4.17,14.47 -3.69,19.74 c 0.67,0.95 2.18,0.44 3.12,0.4 c 6.51,-0.67 15.52,-5.76 21.71,-3.19 c 4.1,1.86 15.54,9.88 19.73,8.57 c 0.12,0.65 0.32,1.27 0.59,1.87 c -0.11,0.28 -0.22,0.56 -0.32,0.83 c -7.18,-0.87 -16.97,-7.34 -23.69,-10.48 c -6.94,1.74 -13.85,3.63 -20.73,5.67 c -1.58,0.09 -5.72,2.2 -4.57,-1.45 c 1.62,-7.46 3.52,-14.85 5.7,-22.17 c 0.33,-2.76 -0.53,-5.1 -2.58,-7.01 c -7.09,-12.1 -11.3,-23.7 -12.36,-37.78 c -1.58,-32.45 10.59,-56.9 36.39,-75.98 c 50.96,-36.7 123.66,-4.07 132.46,57.14 c 3.74,30.37 -5.24,54.26 -27.17,75.25 c -2.08,1.95 -13.64,10.69 -15.54,10.7 Z"/></g>
<g><path fill="#33101f" d="M 157.9,188.73 c 0.59,0.52 1.26,0.91 2.01,1.17 c 0.05,0.38 0.09,0.76 0.14,1.15 c -0.42,0.14 -0.7,0.41 -0.84,0.83 c -17.47,8.58 -36.28,11.2 -55.38,7.11 c -2.36,-0.59 -4.67,-1.31 -6.95,-2.16 c 0.3,-1.49 0.98,-2.77 2.07,-3.85 c 0.27,0.9 0.85,1.51 1.72,1.84 c 14.66,5.18 30.84,4.81 45.55,0.02 c 1.35,-1.03 2.83,-1.82 4.41,-2.37 c -0.71,-0.4 -1.46,-0.73 -2.24,-1 c 1.94,-0.33 3.92,-0.57 5.91,-0.72 c 1.36,-0.39 2.56,-1.07 3.6,-2.02 Z"/></g>
<g><path fill="#66034a" d="M 89.68,108.13 c 0.35,0.95 0.12,1.73 -0.69,2.34 c -3.88,2.6 -7.98,4.82 -12.28,6.68 c -1.81,1.21 -3.55,2.51 -5.19,3.92 c -0.56,0.79 -0.94,1.65 -1.17,2.59 c -0.25,3.65 -0.74,7.25 -1.45,10.82 c 0.14,0.8 0.51,1.49 1.09,2.07 c 2.69,1.86 4.42,2.94 6,5.95 c 1.39,1.91 4.36,1.66 6.44,1.64 c 2.37,-0.43 4.74,-0.83 7.11,-1.2 c 3.3,0.64 6.63,1.02 9.99,1.14 c 3.23,0.7 6.14,2.67 5.48,6.39 c -1.75,5.04 -5.57,11.69 -3.12,17 c 0.39,3.45 -2.03,6.52 -1.9,10.03 c 0.42,2.3 0.75,4.61 1.01,6.93 c -1.12,2.75 -1.8,5.6 -2.05,8.55 c -1.09,1.08 -1.77,2.36 -2.07,3.85 c -0.69,-0.23 -1.3,-0.58 -1.85,-1.05 c 0.1,-0.27 0.21,-0.55 0.32,-0.83 c 0.53,-0.12 0.92,-0.42 1.18,-0.9 c 0.99,-3.53 2.03,-7.06 3.1,-10.58 c -1.57,-3.39 -2.61,-5.02 -1.63,-9.03 c 0.84,-1.99 1.71,-3.97 2.6,-5.94 c -3.68,-6.18 0.1,-11.28 2.48,-17.01 c 1.54,-3.67 -0.21,-4.66 -3.59,-5.4 c -3.28,-0.7 -6.6,-1.16 -9.96,-1.37 c -2.65,0.67 -5.34,1.23 -8.04,1.69 c -2.64,0.01 -4.98,-0.8 -7.03,-2.44 c -0.7,-1.34 -1.31,-2.71 -1.83,-4.11 c -2.56,-1.18 -7.03,-3.82 -5.67,-7.32 c 0.51,-1.76 1.08,-3.49 1.7,-5.21 c -0.33,-1.43 -0.42,-2.88 -0.25,-4.34 c 0.65,-2.45 3.39,-4.32 5.27,-5.83 c 3.68,-2.02 7.37,-3.98 11.09,-5.91 c 1.66,-0.52 3.32,-3.3 4.91,-3.12 Z"/></g>
<g><path fill="#67034a" d="M 91.93,95.65 c 3.25,0.45 6.42,1.26 9.51,2.41 c 10.92,4.44 21.55,9.52 31.87,15.23 c 6.56,3.58 13.03,7.3 19.41,11.17 c 3.3,2.73 -0.35,6.59 0.46,10.02 c 1.08,4.8 3.83,8.98 1.92,14.02 c -0.72,1.27 -1.36,2.54 -1.95,3.83 c 1.3,3.07 2.53,6.17 3.72,9.29 c 0.68,2.59 1.05,5.22 1.11,7.88 c -0.56,1.72 -1.24,3.38 -2.06,4.96 c 1.32,4.09 2.61,8.19 3.88,12.29 c 0.28,1.04 0.32,2.09 0.11,3.15 c -0.75,-0.26 -1.42,-0.65 -2.01,-1.17 c 0.08,-1 0.03,-2 -0.16,-2.99 c -1.05,-3.77 -2.15,-7.53 -3.29,-11.28 c 1.43,-2.81 1.92,-5.78 1.47,-8.91 c -0.65,-1.82 -1.13,-3.69 -1.44,-5.6 c -1.3,-2.88 -3.14,-4.98 -2.52,-8.37 c 0.44,-2.25 1.99,-4.69 1.74,-7 c -0.44,-3.81 -1.22,-7.55 -2.34,-11.21 c 0.42,-3.54 2.11,-7.11 -1.96,-9.23 c -3.15,-1.93 -6.39,-3.68 -9.73,-5.25 c -3.8,-2.87 -8.82,-4.74 -13.04,-7.05 c -1.09,-1.12 -2.41,-1.79 -3.95,-2.02 c -5.73,-4.17 -12.49,-5.95 -18.66,-9.31 c -3.45,-1.27 -6.97,-2.32 -10.55,-3.14 c -1.3,0.31 -2.62,0.49 -3.97,0.53 c -2.17,0.69 -2.93,2.17 -2.27,4.41 c 0.4,1.41 2.16,2.02 1.83,3.63 c -6.7,-2.26 -4.13,-10.84 2.87,-10.29 Z"/></g>
<g><path fill="#6c034d" d="M 124.91,69.71 c -0.83,-0.12 -1.43,-0.55 -1.81,-1.3 c -0.77,-1.63 -1.4,-3.31 -1.88,-5.05 c -2.52,-4.08 -4.71,-8.56 -8.21,-11.88 c -2.13,-0.9 -3.37,-0.16 -3.72,2.22 c -0.18,1.6 -0.25,3.2 -0.22,4.81 c 0.57,4.99 1.46,9.93 2.67,14.8 c -1.14,2.16 -3.16,3.35 -4.73,5.15 c -0.93,0.37 -1.78,0.88 -2.54,1.53 c -2.5,2.48 -5,4.97 -7.5,7.45 c -1.03,1.09 -1.18,2.3 -0.46,3.62 c 2.22,0.74 4.47,1.45 6.76,2.11 c 1.62,0.68 3.18,1.45 4.69,2.34 c 2.72,0.94 5.42,1.94 8.1,3.02 c 7.73,3.89 15.47,7.75 23.23,11.6 c 4.4,2.97 8.87,5.84 13.4,8.61 c 3.85,1.07 3.27,-3.94 4.06,-6.22 c -0.03,-2.66 0.03,-5.32 0.2,-7.97 c -0.47,-2.95 -0.88,-5.92 -1.23,-8.89 c -1.03,-3.49 -2.27,-6.9 -3.72,-10.23 c 0.16,-1.3 -1.35,-3.53 -0.2,-4.48 c 1.8,3.83 3.43,7.73 4.88,11.71 c 0.38,1.6 0.75,3.21 1.13,4.81 c 0.22,3.02 0.53,6.04 0.92,9.04 c -0.22,4.68 -0.85,9.3 -1.91,13.87 c -0.57,1.34 -1.48,1.61 -2.74,0.8 c -12.99,-8.43 -26.57,-15.78 -40.74,-22.04 c -5.64,-2.67 -11.46,-4.85 -17.46,-6.52 c -3.34,-0.84 -3.02,-1.9 -1.32,-4.51 c 2.16,-2.24 4.23,-4.56 6.21,-6.95 c 3.17,-2.53 6.3,-5.09 9.4,-7.68 c 0.21,-1.01 0.16,-2.01 -0.13,-2.99 c -2.52,-5.83 -3.21,-14.45 -1.5,-20.5 c 1.97,-3.28 4.23,-0.96 6.2,0.68 c 3.48,4.13 6.29,8.69 8.44,13.67 c 0.55,1.8 1.13,3.59 1.73,5.37 Z"/></g>
<g><path fill="#70074e" d="M 151.8,80.95 c 1.15,-2.34 2.49,-4.55 4.03,-6.63 c 2.75,-7.96 -2.38,-15.44 -10.47,-17 c -5.18,-0.46 -10.23,2.32 -12.06,7.32 c -0.46,2.04 0.1,6.06 -3.31,5.13 c 0.41,-0.4 0.74,-0.86 1,-1.37 c 0.41,-2.61 1.24,-5.08 2.47,-7.41 c 0.86,-0.83 1.69,-1.69 2.49,-2.58 c 1.14,-0.42 2.17,-1.03 3.1,-1.81 c 0.5,-0.14 1,-0.12 1.51,0.06 c 3.42,-2.02 5.57,-0.21 8.88,0.37 c 1.31,0.68 2.59,1.41 3.83,2.19 c 1.5,1.91 3,1.91 3.36,4.67 c 1.13,0.95 1.53,2.15 1.2,3.6 c 0.27,0.65 0.52,1.29 0.76,1.94 c -0.42,2.03 -0.87,4.06 -1.34,6.1 c -0.78,1.84 -1.84,3.5 -3.17,4.98 c -0.72,0.3 -1.48,0.45 -2.28,0.44 Z"/></g>
</svg>
