<?xml version="1.0" encoding="UTF-8"?>
<!DOCTYPE svg PUBLIC "-//W3C//DTD SVG 1.1//EN" "http://www.w3.org/Graphics/SVG/1.1/DTD/svg11.dtd">
<svg xmlns="http://www.w3.org/2000/svg" viewBox="0 190 508 140" version="1.1" width="508px" height="100%" style="shape-rendering:geometricPrecision; text-rendering:geometricPrecision; image-rendering:optimizeQuality; clip-rule:evenodd" xmlns:xlink="http://www.w3.org/1999/xlink">
<g><path fill="#bb266a" d="M 345.44,266.17 c -0.35,-1.17 -0.17,-3.24 -1.96,-3.08 c -6.99,-0.08 -13.99,-0.11 -20.99,-0.08 c -2.88,-0.16 -3.03,1.39 -3.59,3.74 c -0.74,2.67 -1.76,5.22 -3.06,7.66 c -4.46,6.07 -14.59,2.11 -12.72,-5.79 c 6.06,-17.38 13.46,-34.55 20.16,-51.71 c 4.19,-7.68 14.8,-6.9 18.72,0.65 c 6.93,17.24 13.61,34.58 20.03,52.02 c 0.5,3.73 -1.04,6.19 -4.62,7.4 c -8.01,2.17 -9.79,-5.2 -11.97,-10.81 Z M 395.02,255.25 c -2.94,-1.52 -8.91,0.14 -10.9,-0.99 c 3.4,-0.37 6.84,-0.59 10.31,-0.65 c 1.63,-0.34 3.26,-0.71 4.87,-1.1 c 5.9,-2.5 9.97,-6.76 12.19,-12.77 c 0.75,-6.88 0.56,-14.86 -4.62,-20.1 c -2.78,-2.07 -4.69,-4.05 -8.2,-5 c -1.73,-0.27 -3.46,-0.56 -5.19,-0.86 c -5.66,-0.14 -11.32,-0.08 -16.98,0.17 c -0.93,-0.02 -1.76,0.24 -2.47,0.8 c -3.33,0.79 -2.84,3.23 -3.57,5.97 c -0.09,16.62 -0.05,33.24 0.12,49.86 c 1,3.34 3.22,4.7 6.68,4.08 c 1.87,-0.9 3.01,-2.36 3.42,-4.4 c 0.09,-4.42 0.2,-8.84 0.32,-13.26 c 0.68,-0.39 1.18,-0.94 1.51,-1.66 c 0.13,0.14 0.19,0.3 0.19,0.5 c 0.3,7.11 3.28,24.03 -9.21,21.21 c -2.54,-0.71 -4.13,-2.35 -4.77,-4.9 c 0.35,-18.06 0.4,-36.12 0.15,-54.18 c 0.88,-4.92 5.24,-5.99 9.63,-6.02 c 5,-0.03 10,0.02 15,0.16 c 10.42,0.84 19.26,7.42 19.91,18.39 c 1.6,12.49 -5.63,23.23 -18.39,24.75 Z M 314.52,243.8 c -3.01,7.72 -6.03,15.45 -9.07,23.18 c -3.05,7.96 5.31,11.46 9.45,4.38 c 1.35,-2.65 2.6,-5.35 3.76,-8.09 c 1.15,-1.69 2.76,-2.55 4.82,-2.56 c 5.68,0.07 11.36,0.1 17.04,0.1 c 2.61,-0.08 4.6,0.98 5.96,3.18 c 1.12,3.11 2.46,6.1 4.04,8.99 c 4.01,4.93 10.39,1.38 8.93,-4.67 c -6.01,-15.5 -11.92,-31.04 -17.74,-46.61 c -2.17,-6.2 -10.47,-11.95 -15.44,-5.08 c -1.52,2.67 -2.87,5.43 -4.04,8.28 c -2.31,6.41 -4.88,12.7 -7.71,18.9 Z"/></g>
<g><path fill="#bb266a" d="M 433.41,243.18 c 1.19,-0.99 0.48,-13.83 0.17,-15.92 c -0.26,4.88 -0.52,9.78 -0.78,14.68 c -0.58,-1.07 -0.81,-2.24 -0.69,-3.5 c 0.01,-4.13 0.17,-8.25 0.5,-12.37 c 0.48,-1.41 2.6,-3.7 4.15,-3.61 c 2.49,0.25 4.98,0.23 7.47,-0.06 c 1.51,0.82 3.06,1.56 4.64,2.23 c 1.2,1.43 2.48,2.77 3.84,4.01 c 1.01,2.11 1.34,4.32 1,6.64 c -0.6,1.16 -1.03,2.38 -1.29,3.66 c -1.1,1.23 -2.16,2.49 -3.19,3.78 c -1.31,0.65 -2.62,1.31 -3.92,1.97 c -3.03,-0.22 -10.51,2.2 -11.9,-1.51 Z M 434.65,227 c 0.08,5.12 0.25,10.23 0.5,15.34 c 0.35,0.42 0.8,0.61 1.35,0.54 c 7.16,0.33 14.86,-0.14 14.55,-9.38 c -0.1,-9.19 -8.64,-9.03 -15.53,-8.49 c -0.65,0.49 -0.94,1.16 -0.87,1.99 Z"/></g>
<g><path fill="#bb266a" d="M 380.25,240.98 c 0.89,-3.93 0.26,-8.44 0.48,-12.47 c 0.07,-2.14 -1.44,-3.85 1.16,-4.88 c 4.5,-1.6 10.72,-1.5 14.67,1.39 c 1.81,1.6 3.27,3.46 4.4,5.59 c 0.25,4.58 0.74,8.46 -3,11.87 c -2.05,1.08 -4.22,1.84 -6.5,2.27 c -4.56,0.67 -6.88,0.95 -10.6,-2.04 c -0.53,-0.45 -0.73,-1.03 -0.61,-1.73 Z M 392.9,242.69 c 2.09,-0.66 3.82,-1.85 5.2,-3.55 c 3.39,-5.53 1.41,-11.78 -4.73,-14 c -3.26,-0.52 -6.53,-0.55 -9.8,-0.11 c -0.68,0.66 -0.97,1.48 -0.86,2.45 c -0.12,4.97 0.03,9.92 0.43,14.86 c 1.5,1.3 7.69,0.63 9.76,0.35 Z"/></g>
<g><path fill="#bb266a" d="M 395.02,255.25 c -1.72,0.83 -7.49,0.41 -9.55,0.16 c -0.94,0.01 -1.87,0.15 -2.77,0.43 c 0,-0.2 -0.06,-0.36 -0.19,-0.5 c -0.33,0.72 -0.83,1.27 -1.51,1.66 c -0.84,-2.94 2.74,-2.92 4.6,-3.5 c 4.28,-0.35 8.53,-0.94 12.74,-1.77 c 8.07,-2.87 12.16,-8.61 12.27,-17.22 c 0.08,-12.78 -6.28,-19.4 -19.1,-19.88 c -5.83,-0.16 -11.65,-0.12 -17.48,0.12 c 0.71,-0.56 1.54,-0.82 2.47,-0.8 c 5.66,-0.25 11.32,-0.31 16.98,-0.17 c 1.73,0.3 3.46,0.59 5.19,0.86 c 3.51,0.95 5.42,2.93 8.2,5 c 5.18,5.24 5.37,13.22 4.62,20.1 c -2.22,6.01 -6.29,10.27 -12.19,12.77 c -1.61,0.39 -3.24,0.76 -4.87,1.1 c -3.47,0.06 -6.91,0.28 -10.31,0.65 c 1.99,1.13 7.96,-0.53 10.9,0.99 Z"/></g>
<g><path fill="#bb266a" stroke="#bb266a" stroke-width="0.5" d="M 318.66,263.27 c -2.09,-0.03 -3.04,2.17 -4.08,3.54 c -1.41,-1.08 -2.2,-2.53 -2.37,-4.35 c 0.59,-2.24 0.61,-4.49 0.05,-6.74 c 0.76,-1.57 1.1,-3.23 1.02,-4.98 c 0.59,-1.93 2.79,-5 1.24,-6.94 c 2.83,-6.2 5.4,-12.49 7.71,-18.9 c 1.17,-2.85 2.52,-5.61 4.04,-8.28 c 4.97,-6.87 13.27,-1.12 15.44,5.08 c 5.82,15.57 11.73,31.11 17.74,46.61 c 1.46,6.05 -4.92,9.6 -8.93,4.67 c -1.58,-2.89 -2.92,-5.88 -4.04,-8.99 c -1.36,-2.2 -3.35,-3.26 -5.96,-3.18 c -5.68,0 -11.36,-0.03 -17.04,-0.1 c -2.06,0.01 -3.67,0.87 -4.82,2.56 Z M 374.03,214.75 c 5.83,-0.24 11.65,-0.28 17.48,-0.12 c 12.82,0.48 19.18,7.1 19.1,19.88 c -0.11,8.61 -4.2,14.35 -12.27,17.22 c -4.21,0.83 -8.46,1.42 -12.74,1.77 c -1.86,0.58 -5.44,0.56 -4.6,3.5 c -0.12,4.42 -0.23,8.84 -0.32,13.26 c -0.41,2.04 -1.55,3.5 -3.42,4.4 c -3.46,0.62 -5.68,-0.74 -6.68,-4.08 c -0.17,-16.62 -0.21,-33.24 -0.12,-49.86 c 0.73,-2.74 0.24,-5.18 3.57,-5.97 Z M 422.59,252.02 c 0.28,-5.16 0.62,-10.32 1.03,-15.48 c -0.13,-5.03 -0.11,-10.06 0.06,-15.08 c 0.11,-4.48 2.38,-6.91 6.82,-7.29 c 15.82,-0.93 32.41,0.57 32.73,20.35 c -0.27,7.77 -3.98,13.17 -11.12,16.18 c -4.47,1.25 -9.03,2.07 -13.67,2.47 c -9.47,0.95 -3.29,12.82 -8.24,18.03 c -0.49,2.07 -0.87,4.05 -3.68,3.22 c 0.14,-2.89 0.76,-1.8 -1.54,-3.52 c -2.7,-5.59 -1.94,-12.85 -2.39,-18.88 Z M 432.8,241.94 c 0.2,0.41 0.41,0.82 0.61,1.24 c 1.39,3.71 8.87,1.29 11.9,1.51 c 1.3,-0.66 2.61,-1.32 3.92,-1.97 c 1.03,-1.29 2.09,-2.55 3.19,-3.78 c 0.26,-1.28 0.69,-2.5 1.29,-3.66 c 0.34,-2.32 0.01,-4.53 -1,-6.64 c -1.36,-1.24 -2.64,-2.58 -3.84,-4.01 c -1.58,-0.67 -3.13,-1.41 -4.64,-2.23 c -2.49,0.29 -4.98,0.31 -7.47,0.06 c -1.55,-0.09 -3.67,2.2 -4.15,3.61 c -0.33,4.12 -0.49,8.24 -0.5,12.37 c -0.12,1.26 0.11,2.43 0.69,3.5 Z M 380.25,240.98 c -0.12,0.7 0.08,1.28 0.61,1.73 c 3.72,2.99 6.04,2.71 10.6,2.04 c 2.28,-0.43 4.45,-1.19 6.5,-2.27 c 3.74,-3.41 3.25,-7.29 3,-11.87 c -1.13,-2.13 -2.59,-3.99 -4.4,-5.59 c -3.95,-2.89 -10.17,-2.99 -14.67,-1.39 c -2.6,1.03 -1.09,2.74 -1.16,4.88 c -0.22,4.03 0.41,8.54 -0.48,12.47 Z M 324.39,250.84 c -0.04,0.69 0.27,1.14 0.93,1.35 c 4.32,0.96 8.67,1.1 13.05,0.42 c 0.82,-0.15 1.32,-0.64 1.48,-1.46 c 2.14,-0.67 0.95,-3.87 0.86,-5.42 c -1.73,-4.05 -3.29,-8.18 -4.67,-12.38 c -0.54,-0.62 -1.95,-5.3 -3.03,-3.27 c -0.38,0.04 -0.77,0.08 -1.15,0.13 c -0.31,-0.91 -0.83,-1.05 -1.57,-0.42 c -0.65,1.02 -1.2,2.1 -1.64,3.23 c -1.47,5.28 -4.34,10.97 -5.14,16.33 c 0.09,0.61 0.39,1.11 0.88,1.49 Z"/></g>
<g><path fill="#bb266a" d="M 339.85,251.15 c -0.65,0.05 -1.25,-0.1 -1.78,-0.47 c 0.98,-0.8 1.19,-1.8 0.63,-2.99 c -1.97,-5.85 -3.87,-11.72 -5.69,-17.61 c 1.08,-2.03 2.49,2.65 3.03,3.27 c 1.38,4.2 2.94,8.33 4.67,12.38 c 0.09,1.55 1.28,4.75 -0.86,5.42 Z"/></g>
<g><path fill="#bb266a" d="M 331.86,230.21 c -2.22,6.14 -4.44,12.29 -6.67,18.45 c -0.27,0.71 -0.3,1.43 -0.09,2.16 c -0.24,0.01 -0.47,0.02 -0.71,0.02 c -0.49,-0.38 -0.79,-0.88 -0.88,-1.49 c 0.8,-5.36 3.67,-11.05 5.14,-16.33 c 0.44,-1.13 0.99,-2.21 1.64,-3.23 c 0.74,-0.63 1.26,-0.49 1.57,0.42 Z"/></g>
<g><path fill="#200e35" stroke="#200e35" stroke-width="0.5" d="M 105.09,259.91 c -0.55,-0.13 -0.98,0.05 -1.28,0.54 c 0.4,3.67 0.49,7.36 0.28,11.07 c -0.32,1.14 1.28,2.23 -0.1,2.88 c -2.5,0.69 -5.87,1.14 -7.33,-1.55 c -0.97,-2.26 -2.02,-4.46 -3.13,-6.61 c -0.46,0.52 -0.73,1.14 -0.81,1.86 c -0.6,-1.36 -1.27,-5.15 -3.24,-5.06 c -7.01,0.04 -14.01,-0.02 -21.02,-0.16 c -0.78,0.03 -1.55,0.18 -2.29,0.43 c 0.09,-0.78 0.53,-1.21 1.32,-1.27 c 5.99,-0.21 11.99,-0.14 17.99,0.21 c 1.16,-0.24 4.47,0.29 5.15,-0.76 c -1.22,-1.61 -6.13,-0.62 -8.18,-1.28 c -6,-0.08 -11.94,0.2 -17.84,0.82 c -1.21,2.41 -2.55,4.77 -4.02,7.07 c -0.45,0.61 -0.94,0.65 -1.48,0.14 c 0.01,-2.18 1.79,-1.67 -1.49,-2.29 c -0.48,-0.13 -0.86,-0.41 -1.12,-0.83 c -0.45,-3.03 -0.86,-6.07 -1.21,-9.12 c 0.87,-4.87 2.61,-9.4 5.21,-13.59 c 0.98,0.83 1.97,1.63 2.99,2.4 c 1.47,-0.99 0.71,-5.16 -0.18,-6.53 c 0.35,-1.75 2.26,-7.71 -0.29,-8.3 c 1.97,-4.26 3.76,-8.6 5.37,-13.01 c 5.22,-9.84 17.28,-7.25 20.64,2.59 c 5.42,13.42 10.78,26.87 16.06,40.35 Z M 157.22,272.25 c -0.82,0.1 -1.36,0.57 -1.61,1.39 c -1.91,-1.95 -3.2,-0.03 -3.6,1.85 c -0.25,5.27 -0.35,10.55 -0.28,15.83 c -0.79,1.59 -5.74,0.37 -6.54,-0.87 c -0.23,-18.3 -0.26,-36.61 -0.09,-54.92 c -0.19,-1.83 1.92,-4.31 -1.17,-4.63 c 2.16,-3.61 8.07,-4.06 11.03,-1.27 c 0.86,1.33 1.71,2.67 2.55,4 c 2.84,-3.6 6.57,-5.69 11.17,-6.28 c 21.83,-0.94 30.42,19.86 22.35,38.1 c -5.7,12.77 -22.32,15.74 -32.7,6.87 c -0.36,-0.16 -0.73,-0.18 -1.11,-0.07 Z M 228.98,227.88 c -0.13,0.77 0.1,1.39 0.71,1.88 c 1.11,0.22 2.17,0.57 3.17,1.05 c 0.28,0.93 -0.63,2.17 0.61,2.66 c -1.44,0.52 -1.76,1.39 -0.95,2.62 c 1.63,0.09 3.27,0.09 4.92,0.01 c 1.54,0.05 2.42,0.83 2.62,2.35 c -0.06,3.41 0.15,6.8 0.64,10.17 c 0.87,0.75 0.96,-0.09 1.9,-0.32 c 0.37,1.29 0.4,2.6 0.09,3.95 c -1.2,0.74 -1.97,1.79 -2.31,3.14 c -0.31,5.04 -0.49,10.09 -0.55,15.13 c 0.02,2.12 2.36,4.5 -1.3,4.66 c -1.88,0.46 -3.24,-0.14 -4.09,-1.8 c -0.28,-0.03 -0.56,-0.03 -0.84,0.02 c -1.14,-1.85 -1.7,-1.39 -1.8,0.77 c -1.2,-3.78 -2.56,-0.57 -4.43,0.48 c -18.85,11.26 -36.61,-10.64 -20.48,-23.72 c 0,0.53 0.23,0.93 0.7,1.19 c 3.18,0.6 6.76,-0.8 8.12,3.23 c -0.29,0.68 -2.73,3.53 -0.61,3.58 c -5.43,9.3 12.64,13.3 15.66,0.53 c 0.8,-2.55 -0.12,-3.71 -2.75,-3.5 c -0.25,-1.55 1.71,-0.58 2.57,-0.93 c 0.53,-0.45 0.52,-0.95 -0.03,-1.48 c 1.92,-3.22 1.01,-3.13 -0.59,-5.81 c 0.33,0.04 0.53,-0.1 0.62,-0.43 c -0.05,-4 -1.96,-6.65 -5.73,-7.94 c 0.97,-0.67 2.91,-1.83 1.45,-3.08 c -4.13,-0.26 -9.02,0.32 -12.78,-1.41 c -10.01,1.81 -2.16,-3.89 -5.84,-4.2 c 6.79,-3.26 13.89,-4.19 21.3,-2.8 Z M 70.51,250.87 c -0.04,0.61 0.24,1 0.85,1.16 c 4.6,1.1 9.22,1.23 13.87,0.38 c 0.48,-0.28 0.7,-0.71 0.67,-1.29 c -0.44,-4.48 -5.14,-14.92 -6.68,-19.77 c -0.82,-2.01 -1.65,-2.02 -2.49,-0.03 c -0.51,3.15 -7.21,17.66 -6.22,19.55 Z M 178.56,258.83 c 1.29,2.16 2.08,-0.65 3.05,-1.42 c 0.35,0.86 0.71,1.72 1.08,2.57 c 0.95,0.04 1.44,-0.44 1.46,-1.44 c -0.02,-4.37 0.12,-8.72 0.4,-13.07 c -0.09,-0.63 -0.42,-1.08 -0.99,-1.36 c -0.43,1.17 -0.77,2.36 -1.02,3.59 c -0.34,-1.13 -0.81,-2.2 -1.42,-3.21 c -1.05,-0.7 -2.02,1.14 -2.67,1.68 c -2.75,-5.28 -7.06,-7.3 -12.92,-6.04 c -20.56,8.74 0.85,38.47 13.03,18.7 Z"/></g>
<g><path fill="#f0c575" stroke="#f0c575" stroke-width="0.5" d="M 163.35,291.99 c 0.31,-1.06 -0.39,-3.71 1.21,-3.84 c 95.53,-0.45 191.33,-0.11 286.9,-0.14 c 2.94,0.4 10.41,-0.77 12.48,1.5 c 4.59,8.65 -15.54,4.55 -19.44,5.62 c -92.68,0.03 -185.36,0.04 -278.05,0.03 c -2.79,0.19 -3.17,-0.59 -3.1,-3.17 Z"/></g>
<g><path fill="#f0c575" d="M 43.92,292 c 0.09,-2.95 1.62,-4.31 4.58,-4.09 c 28,-0.04 56.01,-0.05 84.01,-0.04 c 0.91,-0.05 1.76,0.14 2.55,0.58 c 0.6,2.05 0.62,4.11 0.04,6.16 c -0.47,0.31 -0.99,0.48 -1.56,0.5 c -28.68,0.14 -57.37,0.18 -86.06,0.15 c -2.05,-0.16 -3.24,-1.24 -3.56,-3.26 Z M 45.13,291.95 c 0.41,2.21 2.6,2.01 4.37,2.08 c 27.95,0.07 55.9,0.02 83.85,-0.18 c 1.04,-0.77 0.76,-3.51 -0.28,-4.33 c -1.16,-0.36 -2.35,-0.51 -3.57,-0.43 c -27.33,-0.04 -54.66,-0.01 -81.99,0.08 c -1.78,0.06 -2.57,0.98 -2.38,2.78 Z"/></g>
<g><path fill="#f0c575" d="M 45.13,291.95 c -0.19,-1.8 0.6,-2.72 2.38,-2.78 c 27.33,-0.09 54.66,-0.12 81.99,-0.08 c 1.22,-0.08 2.41,0.07 3.57,0.43 c 1.04,0.82 1.32,3.56 0.28,4.33 c -27.95,0.2 -55.9,0.25 -83.85,0.18 c -1.77,-0.07 -3.96,0.13 -4.37,-2.08 Z"/></g>
<g><path fill="#200e35" d="M 286.13,228.62 c 11.64,2.73 11.32,16.71 1.23,14.5 c -26.22,-14.27 -27.64,25.14 -7.86,21.84 c 4.93,-0.91 10.27,-7.34 14.35,-1.39 c 9.71,15.6 -41.01,25.13 -41.78,-10.07 c -0.39,-7.18 1.87,-13.4 6.79,-18.63 c 0.05,1.65 4.4,0.47 5.49,0.77 c 2.05,-0.99 -2.64,-1.5 -0.37,-3.15 c 5.25,-3.28 10.48,-3.99 16.57,-3.8 c 1.38,0.26 2.71,0.68 4,1.25 c 0.89,0 1.42,-0.44 1.58,-1.32 Z"/></g>
<g><path fill="#200e35" d="M 129.03,275.91 c -3.89,2.56 -9.21,1.77 -11.22,-2.72 c 0.76,-0.19 1.18,-0.68 1.27,-1.48 c 2.44,-19.03 0.49,-38.84 0.7,-58.16 c 0.18,-0.95 0.75,-1.51 1.7,-1.68 c 1.82,0.37 6.8,-0.61 7.27,1.88 c 0.99,20.65 -0.41,41.42 0.28,62.16 Z"/></g>
<g><path fill="#bb266a" d="M 420.15,269 c 0.18,-16.17 0.23,-32.33 0.13,-48.5 c -0.65,-12.57 16.59,-7.61 24.23,-8.44 c 30.49,1.1 29.72,48.61 -8.91,43.2 c -0.17,0.11 -0.35,0.23 -0.52,0.34 c -1.07,3.72 0.27,11.48 -0.28,15.76 c -1.7,9.3 -15.19,7.6 -14.65,-2.36 Z M 422.59,252.02 c 0.45,6.03 -0.31,13.29 2.39,18.88 c 2.3,1.72 1.68,0.63 1.54,3.52 c 2.81,0.83 3.19,-1.15 3.68,-3.22 c 4.95,-5.21 -1.23,-17.08 8.24,-18.03 c 4.64,-0.4 9.2,-1.22 13.67,-2.47 c 7.14,-3.01 10.85,-8.41 11.12,-16.18 c -0.32,-19.78 -16.91,-21.28 -32.73,-20.35 c -4.44,0.38 -6.71,2.81 -6.82,7.29 c -0.17,5.02 -0.19,10.05 -0.06,15.08 c -0.41,5.16 -0.75,10.32 -1.03,15.48 Z"/></g>
<g><path fill="#200e35" d="M 63.02,229.98 c 2.55,0.59 0.64,6.55 0.29,8.3 c 0.89,1.37 1.65,5.54 0.18,6.53 c -1.02,-0.77 -2.01,-1.57 -2.99,-2.4 c -2.6,4.19 -4.34,8.72 -5.21,13.59 c 0.35,3.05 0.76,6.09 1.21,9.12 c 0.26,0.42 0.64,0.7 1.12,0.83 c 3.28,0.62 1.5,0.11 1.49,2.29 c 0.54,0.51 1.03,0.47 1.48,-0.14 c 1.47,-2.3 2.81,-4.66 4.02,-7.07 c 5.9,-0.62 11.84,-0.9 17.84,-0.82 c 2.05,0.66 6.96,-0.33 8.18,1.28 c -0.68,1.05 -3.99,0.52 -5.15,0.76 c -6,-0.35 -12,-0.42 -17.99,-0.21 c -0.79,0.06 -1.23,0.49 -1.32,1.27 c -4.16,2.17 -2.55,10.4 -8.13,13.31 c -7.33,2.75 -12.74,-3.16 -9.4,-10.32 c 4.84,-12.09 9.63,-24.19 14.38,-36.32 Z M 143.93,230.9 c 3.09,0.32 0.98,2.8 1.17,4.63 c -0.17,18.31 -0.14,36.62 0.09,54.92 c 0.8,1.24 5.75,2.46 6.54,0.87 c -0.07,-5.28 0.03,-10.56 0.28,-15.83 c 0.4,-1.88 1.69,-3.8 3.6,-1.85 c 0.25,-0.82 0.79,-1.29 1.61,-1.39 c 0.06,5.76 0.01,11.52 -0.15,17.28 c -0.35,2.44 -2.02,4.96 -4.55,5.52 c -5.97,1 -9.11,-1.51 -9.42,-7.55 c 0.02,-17.67 0.02,-35.34 0,-53.01 c -0.07,-1.28 0.21,-2.47 0.83,-3.59 Z"/></g>
<g><path fill="#200e35" d="M 129.03,275.91 c -0.69,-20.74 0.71,-41.51 -0.28,-62.16 c -0.47,-2.49 -5.45,-1.51 -7.27,-1.88 c -0.95,0.17 -1.52,0.73 -1.7,1.68 c -0.21,19.32 1.74,39.13 -0.7,58.16 c -0.09,0.8 -0.51,1.29 -1.27,1.48 c -0.54,-1.51 -0.81,-3.07 -0.81,-4.68 c 0.08,-18.34 0.13,-36.67 0.16,-54.99 c 2.21,-10.04 15.11,-8.09 14.67,1.97 c -0.13,18 -0.13,36 -0.01,54 c 0.03,2.57 -0.9,4.71 -2.79,6.42 Z M 286.13,228.62 c -0.16,0.88 -0.69,1.32 -1.58,1.32 c -1.29,-0.57 -2.62,-0.99 -4,-1.25 c -6.09,-0.19 -11.32,0.52 -16.57,3.8 c -2.27,1.65 2.42,2.16 0.37,3.15 c -1.09,-0.3 -5.44,0.88 -5.49,-0.77 c 7.26,-7.68 17.39,-9.04 27.27,-6.25 Z"/></g>
<g><path fill="#200e35" d="M 228.98,227.88 c 20.91,3.3 14.21,26.63 15.44,41.63 c 0.56,8 -7.77,10.49 -12.62,4.66 c 0.1,-2.16 0.66,-2.62 1.8,-0.77 c 0.28,-0.05 0.56,-0.05 0.84,-0.02 c 0.85,1.66 2.21,2.26 4.09,1.8 c 3.66,-0.16 1.32,-2.54 1.3,-4.66 c 0.06,-5.04 0.24,-10.09 0.55,-15.13 c 0.34,-1.35 1.11,-2.4 2.31,-3.14 c 0.31,-1.35 0.28,-2.66 -0.09,-3.95 c -0.94,0.23 -1.03,1.07 -1.9,0.32 c -0.49,-3.37 -0.7,-6.76 -0.64,-10.17 c -0.2,-1.52 -1.08,-2.3 -2.62,-2.35 c -1.65,0.08 -3.29,0.08 -4.92,-0.01 c -0.81,-1.23 -0.49,-2.1 0.95,-2.62 c -1.24,-0.49 -0.33,-1.73 -0.61,-2.66 c -1,-0.48 -2.06,-0.83 -3.17,-1.05 c -0.61,-0.49 -0.84,-1.11 -0.71,-1.88 Z M 178.56,258.83 c 1.66,-4.23 1.62,-8.45 -0.11,-12.66 c 0.65,-0.54 1.62,-2.38 2.67,-1.68 c 0.61,1.01 1.08,2.08 1.42,3.21 c 0.25,-1.23 0.59,-2.42 1.02,-3.59 c 0.57,0.28 0.9,0.73 0.99,1.36 c -0.28,4.35 -0.42,8.7 -0.4,13.07 c -0.02,1 -0.51,1.48 -1.46,1.44 c -0.37,-0.85 -0.73,-1.71 -1.08,-2.57 c -0.97,0.77 -1.76,3.58 -3.05,1.42 Z"/></g>
<g><path fill="#200e35" d="M 229.96,247.74 c 1.6,2.68 2.51,2.59 0.59,5.81 c 0.55,0.53 0.56,1.03 0.03,1.48 c -0.86,0.35 -2.82,-0.62 -2.57,0.93 c -4.25,-0.21 -9.94,-0.82 -12.91,2.97 c -2.12,-0.05 0.32,-2.9 0.61,-3.58 c -1.36,-4.03 -4.94,-2.63 -8.12,-3.23 c -0.47,-0.26 -0.7,-0.66 -0.7,-1.19 c 6.93,-4.66 15.13,-4.47 23.07,-3.19 Z"/></g>
<g><path fill="#200e35" d="M 207.68,230.68 c 3.68,0.31 -4.17,6.01 5.84,4.2 c 3.76,1.73 8.65,1.15 12.78,1.41 c 1.46,1.25 -0.48,2.41 -1.45,3.08 c -6.52,-2.69 -16.16,6.44 -20.04,0.29 c -1.7,-3.82 -0.75,-6.81 2.87,-8.98 Z"/></g>
<g><path fill="#200e35" d="M 105.09,259.91 c 1.56,4.83 5.66,10.13 2.23,15.03 c -6.67,5.79 -13.2,0.51 -14.6,-6.84 c 0.08,-0.72 0.35,-1.34 0.81,-1.86 c 1.11,2.15 2.16,4.35 3.13,6.61 c 1.46,2.69 4.83,2.24 7.33,1.55 c 1.38,-0.65 -0.22,-1.74 0.1,-2.88 c 0.21,-3.71 0.12,-7.4 -0.28,-11.07 c 0.3,-0.49 0.73,-0.67 1.28,-0.54 Z"/></g>
<g><path fill="#bb266a" stroke="#bb266a" stroke-width="0.5" d="M 314.52,243.8 c 1.55,1.94 -0.65,5.01 -1.24,6.94 c 0.08,1.75 -0.26,3.41 -1.02,4.98 c 0.56,2.25 0.54,4.5 -0.05,6.74 c 0.17,1.82 0.96,3.27 2.37,4.35 c 1.04,-1.37 1.99,-3.57 4.08,-3.54 c -1.16,2.74 -2.41,5.44 -3.76,8.09 c -4.14,7.08 -12.5,3.58 -9.45,-4.38 c 3.04,-7.73 6.06,-15.46 9.07,-23.18 Z"/></g>
<g><path fill="#200e35" d="M 70.51,250.87 c 5.14,-0.1 10.26,-0.01 15.39,0.25 c 0.03,0.58 -0.19,1.01 -0.67,1.29 c -4.65,0.85 -9.27,0.72 -13.87,-0.38 c -0.61,-0.16 -0.89,-0.55 -0.85,-1.16 Z"/></g>
<g><path fill="#bb266a" d="M 324.39,250.84 c 0.24,0 0.47,-0.01 0.71,-0.02 c 4.32,-0.06 8.64,-0.11 12.97,-0.14 c 0.53,0.37 1.13,0.52 1.78,0.47 c -0.16,0.82 -0.66,1.31 -1.48,1.46 c -4.38,0.68 -8.73,0.54 -13.05,-0.42 c -0.66,-0.21 -0.97,-0.66 -0.93,-1.35 Z"/></g>
<g><path fill="#bb266a" d="M 433.41,243.18 c -0.2,-0.42 -0.41,-0.83 -0.61,-1.24 c 0.26,-4.9 0.52,-9.8 0.78,-14.68 c 0.31,2.09 1.02,14.93 -0.17,15.92 Z"/></g>
</svg>
